<svg xmlns="http://www.w3.org/2000/svg" width="25" height="25" viewBox="0 0 25 25">
    <g fill="none" fill-rule="evenodd">
        <circle cx="12.5" cy="12.5" r="12.5" fill="#1F98DE" transform="translate(.001)"/>
        <path fill="#FFF" d="M13.81 9.74c.317 0 .475.221.475.663v5.117c0 .578.108.867.323.867.046 0 .128-.014.247-.043a1.33 1.33 0 0 1 .297-.042c.476 0 .714.295.714.884 0 .782-.334 1.173-1.003 1.173-.113 0-.43-.028-.952-.085-.317-.034-.68-.051-1.088-.051-.204 0-.504.023-.9.068a8.6 8.6 0 0 1-.885.068.97.97 0 0 1-.748-.315c-.192-.21-.289-.478-.289-.807 0-.646.272-.969.816-.969l.442.102a.5.5 0 0 0 .12.017c.203 0 .305-.317.305-.952v-2.754c0-.646-.096-.969-.289-.969-.034 0-.136.028-.306.085a1.463 1.463 0 0 1-.272.034c-.544 0-.816-.317-.816-.952 0-.34.097-.615.29-.824.192-.21.447-.315.764-.315.125 0 .306.017.544.051.397.057.714.085.952.085.193 0 .442-.023.748-.068.306-.045.476-.068.51-.068zm-.97-.646c-.42 0-.782-.153-1.088-.459a1.487 1.487 0 0 1-.459-1.088c0-.43.15-.796.45-1.096.301-.3.667-.451 1.097-.451.43 0 .796.15 1.097.45.3.3.45.666.45 1.097 0 .43-.15.796-.45 1.096-.3.3-.666.451-1.097.451z"/>
    </g>
</svg>
