<svg xmlns="http://www.w3.org/2000/svg" width="15" height="15" viewBox="0 0 15 15">
    <g fill="none" fill-rule="evenodd" opacity=".5">
        <path fill="#34495E" d="M14.032 1.437l-.297 3.853a.578.578 0 0 1-.986.364L9.205 2.1a.578.578 0 0 1 .364-.985l3.842-.298a.578.578 0 0 1 .621.62z"/>
        <path stroke="#34495E" stroke-width="1.5" d="M5.887 8.887l5.5-5.5M8.068 3.596H1.212a.462.462 0 0 0-.462.462v8.97c0 .59.478 1.068 1.068 1.068h8.97a.462.462 0 0 0 .462-.462V6.936l-3.182-3.34z"/>
    </g>
</svg>
