<svg xmlns="http://www.w3.org/2000/svg" xmlns:xlink="http://www.w3.org/1999/xlink" width="25" height="25" viewBox="0 0 25 25">
    <defs>
        <path id="a" d="M0 13.447V.027h11.203v13.42z"/>
    </defs>
    <g fill="none" fill-rule="evenodd">
        <circle cx="12.5" cy="12.5" r="12.5" fill="#1F98DE" transform="translate(.001)"/>
        <g transform="translate(7 5.016)">
            <mask id="b" fill="#fff">
                <use xlink:href="#a"/>
            </mask>
            <path fill="#FFF" d="M3.373 13.447c-.061-.966-.538-1.725-1.016-2.486-.566-.9-1.157-1.786-1.675-2.713-.475-.85-.693-1.786-.682-2.77C.03 2.958 1.94.643 4.407.147 7.005-.375 9.502.84 10.64 3.215c.774 1.613.744 3.255-.048 4.847-.42.844-.954 1.633-1.456 2.435-.445.709-.937 1.39-1.195 2.2-.017.053-.095.112-.152.12-1.325.195-2.652.384-3.978.573-.136.02-.273.035-.438.057" mask="url(#b)"/>
        </g>
        <path fill="#FFF" d="M14.817 18.806c0 .348.007.667-.008.986-.003.05-.107.126-.172.136-.727.11-1.455.211-2.183.315-.576.082-1.153.156-1.728.252-.188.031-.275-.02-.295-.202l-.084-.847 4.47-.64M11.13 21.397l3.317-.475c-.606 1.122-2.308 1.413-3.316.475"/>
    </g>
</svg>
