<svg xmlns="http://www.w3.org/2000/svg" width="25" height="25" viewBox="0 0 25 25">
    <g fill="none" fill-rule="evenodd">
        <circle cx="12.5" cy="12.5" r="12.5" fill="#F6A523"/>
        <path fill="#FFF" d="M11.392 15.094l-.378-8.1h2.754l-.36 8.1h-2.016zM12.4 19.18a1.37 1.37 0 0 1-.567-.117 1.415 1.415 0 0 1-.45-.315 1.616 1.616 0 0 1-.306-.459 1.417 1.417 0 0 1 .306-1.575 1.372 1.372 0 0 1 1.017-.432c.396 0 .738.144 1.026.432a1.402 1.402 0 0 1 .315 1.575 1.495 1.495 0 0 1-1.341.891z"/>
    </g>
</svg>
