<svg xmlns="http://www.w3.org/2000/svg" width="33" height="27" viewBox="0 0 33 27">
    <g fill="none" fill-rule="evenodd">
        <path fill="#F6A523" d="M19.045 1.592l12.638 20.014a3 3 0 0 1-2.555 4.602l-25.544-.156a3 3 0 0 1-2.497-4.635L13.993 1.559a3 3 0 0 1 5.052.033z"/>
        <path fill="#FFF" d="M15.392 17.094l-.378-8.1h2.754l-.36 8.1h-2.016zM16.4 21.18a1.37 1.37 0 0 1-.567-.117 1.415 1.415 0 0 1-.45-.315 1.616 1.616 0 0 1-.306-.459 1.417 1.417 0 0 1 .306-1.575 1.372 1.372 0 0 1 1.017-.432c.396 0 .738.144 1.026.432a1.402 1.402 0 0 1 .315 1.575 1.495 1.495 0 0 1-1.341.891z"/>
    </g>
</svg>
